<?xml version="1.0" standalone="no"?>
<!DOCTYPE svg PUBLIC "-//W3C//DTD SVG 20010904//EN"
 "http://www.w3.org/TR/2001/REC-SVG-20010904/DTD/svg10.dtd">
<svg version="1.0" xmlns="http://www.w3.org/2000/svg"
 width="1364.000000pt" height="488.000000pt" viewBox="0 0 1364.000000 488.000000"
 preserveAspectRatio="xMidYMid meet">

<g transform="translate(0.000000,488.000000) scale(0.100000,-0.100000)"
fill="#fe0052" stroke="none">
<path d="M1744 4726 c-157 -30 -256 -71 -371 -152 -343 -244 -267 -726 129
-819 211 -49 437 40 525 207 25 48 28 63 28 155 0 97 -1 103 -30 144 -30 42
-96 90 -144 104 -21 6 -19 2 14 -30 77 -78 108 -208 70 -299 -23 -55 -79 -111
-137 -136 -74 -32 -198 -26 -285 14 -73 33 -154 113 -184 181 -126 285 115
574 477 575 172 0 317 -62 445 -189 123 -123 186 -264 196 -436 11 -182 -26
-295 -134 -407 -103 -106 -244 -194 -568 -354 -299 -148 -435 -226 -590 -343
-314 -236 -580 -555 -689 -823 -151 -375 -116 -904 85 -1287 132 -251 329
-446 584 -574 428 -214 978 -219 1385 -10 435 222 623 745 403 1123 -83 142
-230 254 -408 310 -97 31 -317 39 -429 16 -252 -52 -440 -207 -517 -426 -32
-90 -32 -239 -2 -323 44 -119 133 -203 261 -246 77 -26 82 -26 46 1 -95 71
-163 160 -184 238 -19 72 -15 200 9 272 84 253 408 361 683 229 212 -102 368
-336 368 -556 0 -140 -68 -306 -171 -418 -105 -115 -219 -186 -376 -233 -120
-37 -315 -39 -440 -6 -268 72 -493 227 -633 436 -111 167 -198 389 -231 592
-16 102 -17 348 0 444 52 304 202 629 388 841 142 162 444 386 723 538 174 95
274 166 388 275 248 239 351 508 296 773 -71 345 -394 591 -799 608 -70 3
-136 0 -181 -9z"/>
<path d="M2830 3956 c0 -2 24 -55 54 -117 64 -135 76 -181 76 -289 0 -181 -86
-316 -283 -444 -47 -31 -223 -123 -390 -205 -348 -170 -455 -230 -582 -329
-229 -176 -373 -390 -447 -662 -20 -73 -23 -108 -22 -250 0 -149 3 -174 28
-255 14 -49 61 -159 104 -244 l77 -155 6 235 c5 193 10 247 27 310 52 191 134
324 301 490 129 128 245 211 461 329 417 227 510 287 630 409 118 119 223 302
261 451 17 70 18 238 0 310 -7 30 -33 98 -58 150 -39 80 -59 107 -133 182 -75
75 -110 102 -110 84z"/>
<path d="M9761 3835 c-104 -47 -290 -224 -447 -426 -164 -210 -377 -542 -468
-729 -75 -154 -67 -212 35 -270 36 -20 58 -24 119 -25 90 0 136 21 254 115 72
57 76 59 76 35 0 -93 99 -189 209 -202 71 -8 162 36 228 112 34 38 56 55 73
55 22 1 93 23 140 44 13 5 14 -3 12 -50 -3 -43 0 -60 15 -76 23 -25 66 -48 92
-48 26 0 108 66 209 166 45 46 82 81 82 79 0 -2 -16 -36 -35 -76 -19 -41 -35
-86 -35 -102 0 -85 204 -159 304 -112 18 9 77 58 131 110 53 52 99 95 101 95
2 0 4 -18 4 -40 0 -97 51 -144 155 -144 45 0 73 6 110 26 125 65 361 275 353
314 -6 36 -42 26 -128 -35 -200 -142 -324 -221 -345 -221 -85 0 24 177 245
397 85 85 109 103 144 110 22 4 486 7 1029 5 883 -2 988 -1 993 13 9 23 -20
49 -84 78 -102 46 -161 52 -349 39 -596 -43 -1028 -62 -1385 -62 -142 0 -218
4 -218 10 0 16 -91 70 -117 70 -29 0 -76 -23 -124 -61 -29 -23 -47 -29 -87
-29 -117 0 -148 -30 -60 -59 l47 -16 -29 -38 c-16 -22 -47 -74 -70 -117 -33
-64 -56 -93 -124 -153 -141 -126 -249 -198 -267 -180 -6 6 7 40 31 84 23 41
57 107 77 147 34 70 35 73 18 98 -19 29 -87 63 -127 64 -33 0 -64 -25 -225
-184 -68 -66 -123 -118 -123 -115 0 3 11 33 25 67 36 89 34 135 -9 178 -49 49
-87 47 -125 -6 -15 -21 -34 -52 -40 -68 -15 -35 -84 -71 -153 -79 l-48 -6 0
37 c0 58 -35 115 -81 135 -21 9 -42 24 -45 34 -15 46 -125 62 -192 28 -45 -23
-113 -90 -138 -136 -15 -28 -46 -47 -198 -124 -100 -50 -191 -93 -204 -97 -36
-9 -37 21 -3 91 29 59 44 75 177 181 379 302 774 701 868 878 47 88 29 138
-63 179 -60 26 -165 33 -210 12z m169 -144 c0 -38 -85 -155 -223 -309 -120
-133 -427 -437 -497 -492 l-45 -35 29 40 c148 200 525 652 623 746 87 84 113
96 113 50z m-293 -1173 c15 -17 15 -20 -8 -44 -24 -26 -70 -54 -88 -54 -6 0
-18 11 -26 24 -14 20 -14 31 -5 68 7 24 24 63 38 87 l26 44 23 -54 c13 -29 31
-61 40 -71z"/>
<path d="M5860 3745 c-124 -17 -267 -49 -411 -91 -438 -127 -962 -395 -1160
-593 -81 -82 -99 -119 -99 -208 0 -86 66 -182 85 -123 4 12 34 50 67 85 313
335 1440 833 1898 839 113 1 150 -14 150 -64 0 -60 -151 -181 -419 -334 -277
-160 -757 -384 -777 -363 -2 2 5 26 16 53 13 28 19 58 15 72 -7 29 -59 52
-119 52 -53 0 -60 -8 -131 -149 -77 -155 -85 -164 -176 -213 -111 -58 -151
-96 -147 -140 4 -42 40 -57 99 -41 l41 11 -7 -32 c-18 -89 -23 -139 -15 -160
10 -26 56 -66 76 -66 7 0 52 75 99 168 47 92 91 174 97 183 15 19 354 156 483
195 73 23 110 28 198 28 l109 1 29 -33 c121 -135 -137 -426 -639 -721 -219
-129 -473 -240 -644 -281 -94 -22 -211 -26 -247 -7 -96 49 -84 170 36 368 61
102 62 118 2 131 -32 7 -90 3 -133 -9 -24 -7 -81 -130 -102 -220 -39 -168 31
-296 191 -346 106 -33 306 -30 470 7 174 41 328 97 520 191 198 97 308 172
453 310 247 235 314 456 182 599 -41 44 -105 82 -158 92 -18 4 -32 9 -32 13 0
4 39 26 87 50 238 118 485 275 582 370 127 126 132 221 16 301 -121 83 -331
110 -585 75z"/>
<path d="M8520 3745 c-324 -45 -751 -189 -1106 -375 -286 -149 -486 -297 -538
-398 -36 -71 -29 -194 15 -241 27 -29 34 -27 63 23 51 88 252 244 483 374 151
86 467 236 643 305 501 197 867 270 957 193 25 -22 26 -25 13 -55 -25 -62
-188 -186 -415 -316 -212 -122 -725 -365 -769 -365 -12 0 -11 11 6 58 12 32
19 66 15 75 -15 38 -150 65 -175 35 -5 -7 -44 -78 -86 -158 l-77 -145 -101
-55 c-67 -36 -107 -65 -120 -85 -42 -69 -7 -107 81 -89 l48 10 -13 -51 c-8
-27 -14 -73 -14 -102 0 -45 4 -54 31 -77 52 -44 60 -38 125 101 32 70 75 152
95 183 34 52 40 57 140 98 291 122 457 172 574 172 78 0 108 -12 138 -52 64
-85 -26 -247 -232 -420 -293 -244 -750 -490 -1060 -569 -89 -23 -210 -25 -250
-5 -92 48 -78 179 39 370 58 94 61 113 23 122 -16 3 -36 8 -46 11 -9 2 -42 -1
-72 -7 -50 -10 -57 -16 -75 -50 -11 -21 -31 -72 -45 -114 -53 -159 -24 -294
79 -364 80 -53 141 -67 301 -66 164 1 265 20 470 88 424 142 764 373 934 636
101 155 106 298 15 400 -46 50 -131 100 -172 100 -39 0 -16 18 91 72 336 168
577 341 636 455 33 65 28 115 -15 163 -101 111 -342 155 -634 115z"/>
<path d="M3203 3387 c16 -229 -21 -429 -101 -553 -95 -145 -256 -264 -737
-544 -244 -142 -321 -196 -429 -300 -167 -161 -256 -289 -301 -433 -14 -43
-25 -83 -25 -88 0 -6 23 23 50 65 171 255 487 376 785 300 33 -9 128 -48 210
-89 83 -40 168 -78 190 -84 131 -35 196 17 211 171 9 81 17 96 56 100 20 2 38
13 52 31 20 27 20 29 4 58 -17 28 -17 30 0 36 23 8 62 44 62 57 0 6 -9 22 -20
36 -11 14 -20 32 -20 41 0 31 40 69 87 80 78 20 78 33 -3 224 -35 83 -38 98
-38 185 0 72 7 123 28 210 49 192 39 402 -25 550 -39 90 -45 80 -36 -53z"/>
<path d="M4155 1351 c-35 -7 -43 -43 -10 -49 46 -9 45 -3 45 -429 l0 -404 -35
-15 c-19 -8 -35 -19 -35 -24 0 -26 48 -32 244 -28 186 3 204 5 249 26 94 47
142 140 135 265 -2 43 -12 88 -23 111 -22 46 -75 100 -116 116 l-30 13 39 23
c54 32 77 82 76 165 0 123 -67 207 -183 229 -58 11 -307 12 -356 1z m352 -75
c48 -24 67 -68 68 -151 0 -86 -18 -118 -81 -146 -31 -14 -61 -19 -102 -17
l-57 3 -3 155 c-1 85 0 161 3 168 7 20 128 11 172 -12z m-32 -386 c49 -11 106
-70 123 -128 15 -49 16 -161 1 -199 -26 -70 -83 -103 -191 -110 l-78 -6 0 221
c0 167 3 222 13 225 20 9 89 7 132 -3z"/>
<path d="M8735 1338 c-100 -35 -174 -135 -175 -233 0 -109 63 -187 234 -289
153 -91 186 -127 186 -204 0 -80 -80 -136 -195 -137 -109 0 -146 28 -177 135
-10 34 -18 45 -33 45 -18 0 -20 -8 -23 -77 -4 -102 7 -144 37 -140 13 1 48 -5
79 -15 73 -21 202 -21 261 1 107 39 171 127 171 232 -1 111 -49 176 -205 271
-145 89 -165 104 -192 150 -29 51 -28 110 4 145 22 25 77 53 120 62 72 16 166
-38 179 -103 7 -34 37 -66 53 -56 13 8 15 164 2 184 -5 8 -15 11 -23 8 -8 -3
-39 3 -69 14 -60 20 -184 24 -234 7z"/>
<path d="M6799 1229 c-13 -8 -29 -67 -29 -106 0 -42 20 -43 44 -2 22 37 51 49
121 49 39 0 54 -4 59 -16 3 -9 6 -164 6 -346 l0 -330 -31 -29 c-18 -16 -29
-33 -25 -37 4 -4 53 -7 109 -7 83 0 102 3 105 15 1 8 -8 20 -20 25 l-23 10 -3
354 c-2 277 1 356 10 363 27 17 137 4 143 -16 2 -6 6 -23 9 -38 15 -66 62 8
54 84 l-3 31 -258 1 c-143 1 -263 -2 -268 -5z"/>
<path d="M7373 1227 c-4 -6 2 -16 12 -21 47 -28 88 -74 119 -135 19 -36 54
-102 80 -146 l46 -80 0 -183 0 -184 -31 -29 c-17 -16 -28 -33 -25 -38 8 -13
198 -12 214 1 14 12 -1 38 -23 38 -22 0 -25 26 -25 227 l0 195 69 113 c92 153
104 168 145 190 20 11 36 27 36 36 0 14 -14 18 -92 21 -103 5 -125 -3 -90 -32
12 -10 22 -24 22 -30 0 -15 -122 -230 -130 -230 -5 0 -82 133 -115 198 -10 22
-14 44 -10 63 4 16 3 29 -2 29 -126 6 -195 5 -200 -3z"/>
<path d="M9859 1229 c-12 -8 -11 -12 6 -24 11 -8 26 -19 33 -25 9 -8 12 -92
12 -356 l0 -346 -31 -29 c-18 -16 -29 -32 -26 -35 9 -9 479 -6 488 3 4 4 10
38 14 75 9 82 -7 91 -49 29 -32 -46 -51 -51 -181 -51 l-92 0 -7 31 c-3 17 -6
173 -6 346 l0 314 31 29 c29 26 30 29 13 38 -25 12 -186 13 -205 1z"/>
<path d="M11107 1233 c-4 -3 -7 -175 -7 -381 l0 -374 -30 -28 c-19 -17 -26
-31 -20 -35 9 -6 68 -8 153 -6 35 1 36 27 2 43 l-25 11 1 276 c0 242 2 274 14
256 263 -367 424 -580 443 -583 l22 -3 0 385 c0 381 0 385 21 400 14 9 19 21
15 31 -5 13 -20 15 -88 13 -45 -2 -83 -7 -85 -13 -1 -5 11 -18 27 -27 l30 -17
0 -243 c0 -203 -2 -240 -13 -228 -8 8 -82 103 -166 211 -216 279 -270 337
-294 312z"/>
<path d="M4842 1211 c-3 -7 1 -17 9 -22 11 -7 15 -72 17 -362 l3 -355 -27 -31
c-14 -17 -22 -31 -17 -32 4 0 112 -1 240 -2 l232 -2 6 55 c4 30 9 62 11 72 10
37 -20 30 -57 -13 l-37 -44 -116 -3 -116 -4 0 171 0 171 64 0 c69 0 96 -14 96
-51 0 -12 7 -19 18 -19 14 0 21 13 30 51 23 100 12 131 -32 90 -15 -13 -42
-20 -98 -24 l-78 -5 0 157 0 158 108 -5 c134 -6 148 -11 156 -56 8 -41 33 -49
41 -13 3 12 6 46 7 75 l3 54 -229 1 c-184 2 -230 -1 -234 -12z"/>
<path d="M5674 1222 c-6 -4 -68 -178 -138 -387 -102 -305 -132 -384 -152 -398
-13 -10 -24 -23 -24 -28 0 -13 177 -11 186 2 4 7 -4 20 -17 30 l-23 17 29 104
30 103 116 3 115 3 34 -107 33 -107 -21 -18 c-41 -32 -27 -39 83 -39 83 0 105
3 105 14 0 7 -11 21 -25 30 -20 13 -40 64 -115 299 -105 326 -138 421 -157
460 -13 26 -37 34 -59 19z m56 -337 c17 -60 33 -118 36 -127 5 -16 -4 -18 -85
-18 -50 0 -91 4 -91 8 0 7 69 217 86 262 8 23 17 2 54 -125z"/>
<path d="M6050 1216 c0 -8 9 -18 20 -21 11 -3 22 -16 24 -28 3 -12 7 -139 9
-282 4 -230 7 -268 26 -327 38 -119 122 -165 281 -156 129 8 208 58 251 163 9
20 15 120 18 313 l6 284 30 24 c45 36 24 45 -90 42 -107 -3 -128 -15 -76 -43
l31 -16 -1 -277 c-1 -329 -6 -351 -94 -403 -30 -18 -54 -24 -98 -23 -66 1
-100 20 -132 75 -19 32 -20 55 -23 329 -4 289 -3 296 17 314 43 39 29 46 -89
46 -89 0 -110 -3 -110 -14z"/>
<path d="M9453 1218 c-6 -7 -65 -179 -133 -383 -94 -286 -127 -375 -146 -390
-43 -37 -31 -45 66 -45 72 0 90 3 90 14 0 8 -9 21 -20 29 -21 15 -19 25 36
210 5 15 19 17 119 17 l114 0 19 -52 c11 -29 25 -76 32 -105 12 -47 12 -54 -3
-71 -33 -36 -22 -42 82 -42 55 0 102 4 106 10 3 5 -5 16 -19 25 -31 21 -34 29
-151 395 -118 370 -130 400 -160 400 -12 0 -27 -6 -32 -12z m30 -220 c2 -13
19 -71 36 -129 17 -58 31 -111 31 -118 0 -7 -28 -11 -85 -11 -74 0 -85 2 -85
17 0 27 81 263 90 263 4 0 10 -10 13 -22z"/>
<path d="M10594 1206 c-71 -33 -119 -94 -148 -186 -65 -207 -33 -435 78 -546
61 -62 108 -78 212 -72 125 6 196 68 245 213 21 60 24 88 23 195 -1 106 -5
137 -27 205 -47 144 -136 215 -267 215 -47 0 -79 -7 -116 -24z m171 -67 c130
-114 183 -426 100 -589 -36 -70 -106 -102 -168 -77 -94 40 -157 199 -157 397
0 132 43 254 102 286 41 23 84 17 123 -17z"/>
</g>
</svg>
